<?xml version="1.0" encoding="UTF-8"?>
<svg id="Layer_2" data-name="Layer 2" xmlns="http://www.w3.org/2000/svg" viewBox="0 0 491.06 491.15">
  <defs>
    <style>
      .cls-1 {
        fill: #00d897;
      }

      .cls-1, .cls-2 {
        stroke-width: 0px;
      }

      .cls-2 {
        fill: #272636;
      }
    </style>
  </defs>
  <g id="Layer_1-2" data-name="Layer 1">
    <g>
      <path class="cls-2" d="m304.59,236.06l-21.81,21.81c11.59,19.95,18.22,43.11,18.22,67.78,0,74.71-60.79,135.5-135.5,135.5S30,400.36,30,325.65s60.79-135.5,135.5-135.5c24.67,0,47.83,6.63,67.78,18.22l21.81-21.81c-25.84-16.71-56.6-26.41-89.59-26.41C74.24,160.15,0,234.39,0,325.65s74.24,165.5,165.5,165.5,165.5-74.24,165.5-165.5c0-32.99-9.7-63.75-26.41-89.59Z"/>
      <path class="cls-1" d="m263.6,277.05l-15.1,15.1c4.19,10.35,6.5,21.66,6.5,33.5,0,49.35-40.15,89.5-89.5,89.5s-89.5-40.15-89.5-89.5,40.15-89.5,89.5-89.5c11.84,0,23.15,2.31,33.5,6.5l15.1-15.1c-14.65-7.3-31.15-11.4-48.6-11.4-60.38,0-109.5,49.12-109.5,109.5s49.12,109.5,109.5,109.5,109.5-49.12,109.5-109.5c0-17.45-4.1-33.95-11.4-48.6Z"/>
      <path class="cls-2" d="m214,325.65c0,26.79-21.71,48.5-48.5,48.5s-48.5-21.71-48.5-48.5,21.71-48.5,48.5-48.5c7.93,0,15.41,1.9,22.01,5.27,4.56,2.32,8.7,5.35,12.29,8.93,3.58,3.59,6.61,7.73,8.93,12.29,3.37,6.6,5.27,14.08,5.27,22.01Z"/>
      <path class="cls-1" d="m403.25,87.82l1.2-87.82-95.95,95.96-.91,66.38-.3,21.43h.09l21.52-.3,66.2-.9,95.96-95.96-87.81,1.21Zm-20.75,64.91l-44.79.62.62-44.79,35.11-35.12-.62,44.8,44.8-.62-35.12,35.11Z"/>
      <polygon class="cls-2" points="291.48 199.67 291.69 178.24 154.89 315.04 176.11 336.26 313 199.37 291.48 199.67"/>
    </g>
  </g>
</svg>